<svg width="37" height="34" viewBox="0 0 37 34" fill="none" xmlns="http://www.w3.org/2000/svg">
<g id="logo">
<path id="Vector" d="M21.3235 0H29.1311C31.2018 0 33.1877 0.82258 34.6519 2.28679C36.1161 3.751 36.9387 5.73691 36.9387 7.80762V18.3848C36.9387 20.4555 36.1161 22.4414 34.6519 23.9056C33.1877 25.3698 31.2018 26.1924 29.1311 26.1924V8.31077C29.1311 8.31077 30.3001 0.670154 21.3235 0Z" fill="#5840BA"/>
<path id="Vector_2" d="M15.6152 34L29.1311 26.1924H15.6152V34Z" fill="#5840BA"/>
<path id="Vector_3" d="M15.6152 26.1924H7.80762C5.73691 26.1924 3.75099 25.3698 2.28678 23.9056C0.822567 22.4414 0 20.4555 0 18.3848V7.80762C0 5.73691 0.822567 3.751 2.28678 2.28679C3.75099 0.82258 5.73691 0 7.80762 0V17.8816C7.80762 17.8816 6.63214 25.5201 15.6152 26.1924Z" fill="#5840BA"/>
<path id="Vector_4" d="M12.8457 14.9018C13.8422 14.9018 14.6501 14.094 14.6501 13.0974C14.6501 12.1008 13.8422 11.293 12.8457 11.293C11.8491 11.293 11.0413 12.1008 11.0413 13.0974C11.0413 14.094 11.8491 14.9018 12.8457 14.9018Z" fill="#A4DB74"/>
<path id="Vector_5" d="M18.4693 14.9018C19.4659 14.9018 20.2738 14.094 20.2738 13.0974C20.2738 12.1008 19.4659 11.293 18.4693 11.293C17.4728 11.293 16.6649 12.1008 16.6649 13.0974C16.6649 14.094 17.4728 14.9018 18.4693 14.9018Z" fill="#A4DB74"/>
<path id="Vector_6" d="M24.0952 14.9018C25.0918 14.9018 25.8996 14.094 25.8996 13.0974C25.8996 12.1008 25.0918 11.293 24.0952 11.293C23.0986 11.293 22.2908 12.1008 22.2908 13.0974C22.2908 14.094 23.0986 14.9018 24.0952 14.9018Z" fill="#A4DB74"/>
</g>
</svg>
